<svg width="128" height="128" viewBox="0 0 128 128" xmlns="http://www.w3.org/2000/svg" role="img" aria-labelledby="kusLogoTitle kusLogoDesc">
  <title id="kusLogoTitle">KUS 스타일 로고</title>
  <desc id="kusLogoDesc">KUS 문자를 모티브로 만든 원형 패션 브랜드 로고</desc>
  <defs>
    <linearGradient id="kusGrad" x1="0%" y1="0%" x2="100%" y2="100%">
      <stop offset="0%" stop-color="#111827" />
      <stop offset="100%" stop-color="#374151" />
    </linearGradient>
  </defs>
  <circle cx="64" cy="64" r="60" fill="url(#kusGrad)" />
  <circle cx="64" cy="64" r="55" fill="none" stroke="#f9fafb" stroke-width="2" opacity="0.6" />
  <path d="M38 35v58h10V71l20 22h14L57 65l23-30H67L48 59V35H38Z" fill="#f9fafb" />
  <path d="M92 35c-10 0-18 6-18 16 0 9 7 13 16 16 7 2 10 4 10 8 0 4-4 7-9 7-6 0-10-2-14-6l-6 8c5 5 12 8 20 8 12 0 20-7 20-17 0-9-6-13-16-16-8-2-10-4-10-8 0-4 3-6 8-6 5 0 8 2 12 5l6-8c-5-5-11-7-19-7Z" fill="#f59e0b" />
</svg>
